<svg width="256" height="256" viewBox="0 0 256 256" fill="none" xmlns="http://www.w3.org/2000/svg">
  <rect width="256" height="256" rx="128" fill="#3B82F6"/>
  <path d="M64 80C64 71.1634 71.1634 64 80 64H176C184.837 64 192 71.1634 192 80V176C192 184.837 184.837 192 176 192H80C71.1634 192 64 184.837 64 176V80Z" fill="white"/>
  <path d="M192 120H208C216.837 120 224 127.163 224 136V144C224 152.837 216.837 160 208 160H192V120Z" fill="white"/>
  <circle cx="200" cy="140" r="8" fill="#3B82F6"/>
  <path d="M80 88H176V104H80V88Z" fill="#3B82F6"/>
</svg>
